solid patch_3_1
 facet normal 0.9980267286300659 -0.0627904087305069 -3.5664950901407856e-17
  outer loop
   vertex 0.1 5.680000198481083e-16 -1.0
   vertex 0.1 0.0 0.0
   vertex 0.09921147155761718 -0.012533323287963867 0.0
  endloop
 endfacet
 facet normal 0.9822872281074524 -0.1873815506696701 0.0
  outer loop
   vertex 0.09921147155761718 -0.012533323287963867 -1.0
   vertex 0.09921147155761718 -0.012533323287963867 0.0
   vertex 0.09685831451416016 -0.024868988037109376 0.0
  endloop
 endfacet
 facet normal 0.9980267286300659 -0.0627904087305069 0.0
  outer loop
   vertex 0.09921147155761718 -0.012533323287963867 -1.0
   vertex 0.1 5.680000198481083e-16 -1.0
   vertex 0.09921147155761718 -0.012533323287963867 0.0
  endloop
 endfacet
 facet normal 0.9822872281074524 -0.1873815506696701 0.0
  outer loop
   vertex 0.09685831451416016 -0.024868988037109376 -1.0
   vertex 0.09921147155761718 -0.012533323287963867 -1.0
   vertex 0.09685831451416016 -0.024868988037109376 0.0
  endloop
 endfacet
 facet normal 0.9510564804077148 -0.3090170919895172 0.0
  outer loop
   vertex 0.09685831451416016 -0.024868988037109376 -1.0
   vertex 0.09685831451416016 -0.024868988037109376 0.0
   vertex 0.09297764587402343 -0.036812454223632815 0.0
  endloop
 endfacet
 facet normal 0.9510564804077148 -0.3090170919895172 0.0
  outer loop
   vertex 0.09297764587402343 -0.036812454223632815 -1.0
   vertex 0.09685831451416016 -0.024868988037109376 -1.0
   vertex 0.09297764587402343 -0.036812454223632815 0.0
  endloop
 endfacet
 facet normal 0.9048272371292114 -0.42577898502349854 0.0
  outer loop
   vertex 0.09297764587402343 -0.036812454223632815 -1.0
   vertex 0.09297764587402343 -0.036812454223632815 0.0
   vertex 0.08763066864013672 -0.04817536926269531 0.0
  endloop
 endfacet
 facet normal 0.9048272371292114 -0.42577898502349854 0.0
  outer loop
   vertex 0.08763066864013672 -0.04817536926269531 -1.0
   vertex 0.09297764587402343 -0.036812454223632815 -1.0
   vertex 0.08763066864013672 -0.04817536926269531 0.0
  endloop
 endfacet
 facet normal 0.8443280458450317 -0.5358266830444336 0.0
  outer loop
   vertex 0.08763066864013672 -0.04817536926269531 -1.0
   vertex 0.08763066864013672 -0.04817536926269531 0.0
   vertex 0.08090170288085938 -0.058778526306152344 0.0
  endloop
 endfacet
 facet normal 0.8443280458450317 -0.5358266830444336 0.0
  outer loop
   vertex 0.08090170288085938 -0.058778526306152344 -1.0
   vertex 0.08763066864013672 -0.04817536926269531 -1.0
   vertex 0.08090170288085938 -0.058778526306152344 0.0
  endloop
 endfacet
 facet normal 0.7705132365226746 -0.6374239921569824 0.0
  outer loop
   vertex 0.08090170288085938 -0.058778526306152344 -1.0
   vertex 0.08090170288085938 -0.058778526306152344 0.0
   vertex 0.07289686584472656 -0.06845471191406251 0.0
  endloop
 endfacet
 facet normal 0.7705132365226746 -0.6374239921569824 0.0
  outer loop
   vertex 0.07289686584472656 -0.06845471191406251 -1.0
   vertex 0.08090170288085938 -0.058778526306152344 -1.0
   vertex 0.07289686584472656 -0.06845471191406251 0.0
  endloop
 endfacet
 facet normal 0.6845468282699585 -0.7289689183235168 0.0
  outer loop
   vertex 0.07289686584472656 -0.06845471191406251 -1.0
   vertex 0.07289686584472656 -0.06845471191406251 0.0
   vertex 0.06374239730834962 -0.07705132293701172 0.0
  endloop
 endfacet
 facet normal 0.6845468282699585 -0.7289689183235168 0.0
  outer loop
   vertex 0.06374239730834962 -0.07705132293701172 -1.0
   vertex 0.07289686584472656 -0.06845471191406251 -1.0
   vertex 0.06374239730834962 -0.07705132293701172 0.0
  endloop
 endfacet
 facet normal 0.5877853631973267 -0.8090168833732605 0.0
  outer loop
   vertex 0.06374239730834962 -0.07705132293701172 -1.0
   vertex 0.06374239730834962 -0.07705132293701172 0.0
   vertex 0.05358267974853516 -0.08443279266357422 0.0
  endloop
 endfacet
 facet normal 0.5877853631973267 -0.8090168833732605 0.0
  outer loop
   vertex 0.05358267974853516 -0.08443279266357422 -1.0
   vertex 0.06374239730834962 -0.07705132293701172 -1.0
   vertex 0.05358267974853516 -0.08443279266357422 0.0
  endloop
 endfacet
 facet normal 0.4817536473274231 -0.8763066530227661 0.0
  outer loop
   vertex 0.05358267974853516 -0.08443279266357422 -1.0
   vertex 0.05358267974853516 -0.08443279266357422 0.0
   vertex 0.042577930450439457 -0.09048270416259765 0.0
  endloop
 endfacet
 facet normal 0.4817536473274231 -0.8763066530227661 0.0
  outer loop
   vertex 0.042577930450439457 -0.09048270416259765 -1.0
   vertex 0.05358267974853516 -0.08443279266357422 -1.0
   vertex 0.042577930450439457 -0.09048270416259765 0.0
  endloop
 endfacet
 facet normal 0.3681245744228363 -0.9297764301300049 0.0
  outer loop
   vertex 0.042577930450439457 -0.09048270416259765 -1.0
   vertex 0.042577930450439457 -0.09048270416259765 0.0
   vertex 0.03090169906616211 -0.09510565185546875 0.0
  endloop
 endfacet
 facet normal 0.3681245744228363 -0.9297764301300049 0.0
  outer loop
   vertex 0.03090169906616211 -0.09510565185546875 -1.0
   vertex 0.042577930450439457 -0.09048270416259765 -1.0
   vertex 0.03090169906616211 -0.09510565185546875 0.0
  endloop
 endfacet
 facet normal 0.24868960678577423 -0.9685832262039185 0.0
  outer loop
   vertex 0.03090169906616211 -0.09510565185546875 -1.0
   vertex 0.03090169906616211 -0.09510565185546875 0.0
   vertex 0.018738130569458007 -0.09822872161865234 0.0
  endloop
 endfacet
 facet normal 0.24868960678577423 -0.9685832262039185 0.0
  outer loop
   vertex 0.018738130569458007 -0.09822872161865234 -1.0
   vertex 0.03090169906616211 -0.09510565185546875 -1.0
   vertex 0.018738130569458007 -0.09822872161865234 0.0
  endloop
 endfacet
 facet normal 0.1253335326910019 -0.9921146035194397 0.0
  outer loop
   vertex 0.018738130569458007 -0.09822872161865234 -1.0
   vertex 0.018738130569458007 -0.09822872161865234 0.0
   vertex 0.006279051780700684 -0.09980267333984376 0.0
  endloop
 endfacet
 facet normal 0.1253335326910019 -0.9921146035194397 0.0
  outer loop
   vertex 0.006279051780700684 -0.09980267333984376 -1.0
   vertex 0.018738130569458007 -0.09822872161865234 -1.0
   vertex 0.006279051780700684 -0.09980267333984376 0.0
  endloop
 endfacet
 facet normal 0.0 -1.0 0.0
  outer loop
   vertex 0.006279051780700684 -0.09980267333984376 -1.0
   vertex 0.006279051780700684 -0.09980267333984376 0.0
   vertex -0.006279051780700684 -0.09980267333984376 0.0
  endloop
 endfacet
 facet normal 0.0 -1.0 0.0
  outer loop
   vertex -0.006279051780700684 -0.09980267333984376 -1.0
   vertex 0.006279051780700684 -0.09980267333984376 -1.0
   vertex -0.006279051780700684 -0.09980267333984376 0.0
  endloop
 endfacet
 facet normal -0.1253335326910019 -0.9921146035194397 0.0
  outer loop
   vertex -0.006279051780700684 -0.09980267333984376 -1.0
   vertex -0.006279051780700684 -0.09980267333984376 0.0
   vertex -0.018738130569458007 -0.09822872161865234 0.0
  endloop
 endfacet
 facet normal -0.1253335326910019 -0.9921146035194397 0.0
  outer loop
   vertex -0.018738130569458007 -0.09822872161865234 -1.0
   vertex -0.006279051780700684 -0.09980267333984376 -1.0
   vertex -0.018738130569458007 -0.09822872161865234 0.0
  endloop
 endfacet
 facet normal -0.24868960678577423 -0.9685832262039185 0.0
  outer loop
   vertex -0.018738130569458007 -0.09822872161865234 -1.0
   vertex -0.018738130569458007 -0.09822872161865234 0.0
   vertex -0.03090169906616211 -0.09510565185546875 0.0
  endloop
 endfacet
 facet normal -0.24868960678577423 -0.9685832262039185 0.0
  outer loop
   vertex -0.03090169906616211 -0.09510565185546875 -1.0
   vertex -0.018738130569458007 -0.09822872161865234 -1.0
   vertex -0.03090169906616211 -0.09510565185546875 0.0
  endloop
 endfacet
 facet normal -0.3681245744228363 -0.9297764301300049 0.0
  outer loop
   vertex -0.03090169906616211 -0.09510565185546875 -1.0
   vertex -0.03090169906616211 -0.09510565185546875 0.0
   vertex -0.042577930450439457 -0.09048270416259765 0.0
  endloop
 endfacet
 facet normal -0.3681245744228363 -0.9297764301300049 0.0
  outer loop
   vertex -0.042577930450439457 -0.09048270416259765 -1.0
   vertex -0.03090169906616211 -0.09510565185546875 -1.0
   vertex -0.042577930450439457 -0.09048270416259765 0.0
  endloop
 endfacet
 facet normal -0.4817536473274231 -0.8763066530227661 0.0
  outer loop
   vertex -0.05358267974853516 -0.08443279266357422 -1.0
   vertex -0.042577930450439457 -0.09048270416259765 -1.0
   vertex -0.042577930450439457 -0.09048270416259765 0.0
  endloop
 endfacet
 facet normal -0.5877853631973267 -0.8090168833732605 0.0
  outer loop
   vertex -0.05358267974853516 -0.08443279266357422 -1.0
   vertex -0.05358267974853516 -0.08443279266357422 0.0
   vertex -0.06374239730834962 -0.07705132293701172 0.0
  endloop
 endfacet
 facet normal -0.4817536473274231 -0.8763066530227661 0.0
  outer loop
   vertex -0.05358267974853516 -0.08443279266357422 -1.0
   vertex -0.042577930450439457 -0.09048270416259765 0.0
   vertex -0.05358267974853516 -0.08443279266357422 0.0
  endloop
 endfacet
 facet normal -0.5877853631973267 -0.8090168833732605 0.0
  outer loop
   vertex -0.06374239730834962 -0.07705132293701172 -1.0
   vertex -0.05358267974853516 -0.08443279266357422 -1.0
   vertex -0.06374239730834962 -0.07705132293701172 0.0
  endloop
 endfacet
 facet normal -0.6845468282699585 -0.7289689183235168 0.0
  outer loop
   vertex -0.06374239730834962 -0.07705132293701172 -1.0
   vertex -0.06374239730834962 -0.07705132293701172 0.0
   vertex -0.07289686584472656 -0.06845471191406251 0.0
  endloop
 endfacet
 facet normal -0.7705132365226746 -0.6374239921569824 0.0
  outer loop
   vertex -0.07289686584472656 -0.06845471191406251 -1.0
   vertex -0.07289686584472656 -0.06845471191406251 0.0
   vertex -0.08090170288085938 -0.058778526306152344 0.0
  endloop
 endfacet
 facet normal -0.6845468282699585 -0.7289689183235168 0.0
  outer loop
   vertex -0.07289686584472656 -0.06845471191406251 -1.0
   vertex -0.06374239730834962 -0.07705132293701172 -1.0
   vertex -0.07289686584472656 -0.06845471191406251 0.0
  endloop
 endfacet
 facet normal -0.7705132365226746 -0.6374239921569824 0.0
  outer loop
   vertex -0.08090170288085938 -0.058778526306152344 -1.0
   vertex -0.07289686584472656 -0.06845471191406251 -1.0
   vertex -0.08090170288085938 -0.058778526306152344 0.0
  endloop
 endfacet
 facet normal -0.8443280458450317 -0.5358266830444336 0.0
  outer loop
   vertex -0.08763066864013672 -0.04817536926269531 -1.0
   vertex -0.08090170288085938 -0.058778526306152344 0.0
   vertex -0.08763066864013672 -0.04817536926269531 0.0
  endloop
 endfacet
 facet normal -0.8443280458450317 -0.5358266830444336 0.0
  outer loop
   vertex -0.08763066864013672 -0.04817536926269531 -1.0
   vertex -0.08090170288085938 -0.058778526306152344 -1.0
   vertex -0.08090170288085938 -0.058778526306152344 0.0
  endloop
 endfacet
 facet normal -0.9510564804077148 -0.3090170919895172 0.0
  outer loop
   vertex -0.09297764587402343 -0.036812454223632815 -1.0
   vertex -0.09297764587402343 -0.036812454223632815 0.0
   vertex -0.09685831451416016 -0.024868988037109376 0.0
  endloop
 endfacet
 facet normal -0.9048272371292114 -0.42577898502349854 0.0
  outer loop
   vertex -0.09297764587402343 -0.036812454223632815 -1.0
   vertex -0.08763066864013672 -0.04817536926269531 0.0
   vertex -0.09297764587402343 -0.036812454223632815 0.0
  endloop
 endfacet
 facet normal -0.9048272371292114 -0.42577898502349854 0.0
  outer loop
   vertex -0.09297764587402343 -0.036812454223632815 -1.0
   vertex -0.08763066864013672 -0.04817536926269531 -1.0
   vertex -0.08763066864013672 -0.04817536926269531 0.0
  endloop
 endfacet
 facet normal -0.9822872281074524 -0.1873815506696701 0.0
  outer loop
   vertex -0.09685831451416016 -0.024868988037109376 -1.0
   vertex -0.09685831451416016 -0.024868988037109376 0.0
   vertex -0.09921147155761718 -0.012533323287963867 0.0
  endloop
 endfacet
 facet normal -0.9510564804077148 -0.3090170919895172 0.0
  outer loop
   vertex -0.09685831451416016 -0.024868988037109376 -1.0
   vertex -0.09297764587402343 -0.036812454223632815 -1.0
   vertex -0.09685831451416016 -0.024868988037109376 0.0
  endloop
 endfacet
 facet normal -0.9822872281074524 -0.1873815506696701 0.0
  outer loop
   vertex -0.09921147155761718 -0.012533323287963867 -1.0
   vertex -0.09685831451416016 -0.024868988037109376 -1.0
   vertex -0.09921147155761718 -0.012533323287963867 0.0
  endloop
 endfacet
 facet normal -0.9980267286300659 -0.0627904087305069 0.0
  outer loop
   vertex -0.1 1.2098029284098034e-16 -1.0
   vertex -0.09921147155761718 -0.012533323287963867 -1.0
   vertex -0.09921147155761718 -0.012533323287963867 0.0
  endloop
 endfacet
 facet normal -0.9980267286300659 0.0627904087305069 1.5192803149704308e-17
  outer loop
   vertex -0.1 1.2098029284098034e-16 -1.0
   vertex -0.1 -1.2098029284098034e-16 0.0
   vertex -0.09921147155761718 0.012533323287963867 0.0
  endloop
 endfacet
 facet normal -0.9980267286300659 -0.0627904087305069 -1.5192803149704308e-17
  outer loop
   vertex -0.1 1.2098029284098034e-16 -1.0
   vertex -0.09921147155761718 -0.012533323287963867 0.0
   vertex -0.1 -1.2098029284098034e-16 0.0
  endloop
 endfacet
 facet normal -0.9980267286300659 0.0627904087305069 0.0
  outer loop
   vertex -0.09921147155761718 0.012533323287963867 -1.0
   vertex -0.1 1.2098029284098034e-16 -1.0
   vertex -0.09921147155761718 0.012533323287963867 0.0
  endloop
 endfacet
 facet normal -0.9822872281074524 0.1873815506696701 0.0
  outer loop
   vertex -0.09921147155761718 0.012533323287963867 -1.0
   vertex -0.09921147155761718 0.012533323287963867 0.0
   vertex -0.09685831451416016 0.024868988037109376 0.0
  endloop
 endfacet
 facet normal -0.9822872281074524 0.1873815506696701 0.0
  outer loop
   vertex -0.09685831451416016 0.024868988037109376 -1.0
   vertex -0.09921147155761718 0.012533323287963867 -1.0
   vertex -0.09685831451416016 0.024868988037109376 0.0
  endloop
 endfacet
 facet normal -0.9510564804077148 0.3090170919895172 0.0
  outer loop
   vertex -0.09297764587402343 0.036812454223632815 -1.0
   vertex -0.09685831451416016 0.024868988037109376 -1.0
   vertex -0.09685831451416016 0.024868988037109376 0.0
  endloop
 endfacet
 facet normal -0.9048272371292114 0.42577898502349854 0.0
  outer loop
   vertex -0.09297764587402343 0.036812454223632815 -1.0
   vertex -0.09297764587402343 0.036812454223632815 0.0
   vertex -0.08763066864013672 0.04817536926269531 0.0
  endloop
 endfacet
 facet normal -0.9510564804077148 0.3090170919895172 0.0
  outer loop
   vertex -0.09297764587402343 0.036812454223632815 -1.0
   vertex -0.09685831451416016 0.024868988037109376 0.0
   vertex -0.09297764587402343 0.036812454223632815 0.0
  endloop
 endfacet
 facet normal -0.9048272371292114 0.42577898502349854 0.0
  outer loop
   vertex -0.08763066864013672 0.04817536926269531 -1.0
   vertex -0.09297764587402343 0.036812454223632815 -1.0
   vertex -0.08763066864013672 0.04817536926269531 0.0
  endloop
 endfacet
 facet normal -0.8443280458450317 0.5358266830444336 0.0
  outer loop
   vertex -0.08090170288085938 0.058778526306152344 -1.0
   vertex -0.08763066864013672 0.04817536926269531 -1.0
   vertex -0.08763066864013672 0.04817536926269531 0.0
  endloop
 endfacet
 facet normal -0.7705132365226746 0.6374239921569824 0.0
  outer loop
   vertex -0.08090170288085938 0.058778526306152344 -1.0
   vertex -0.08090170288085938 0.058778526306152344 0.0
   vertex -0.07289686584472656 0.06845471191406251 0.0
  endloop
 endfacet
 facet normal -0.8443280458450317 0.5358266830444336 0.0
  outer loop
   vertex -0.08090170288085938 0.058778526306152344 -1.0
   vertex -0.08763066864013672 0.04817536926269531 0.0
   vertex -0.08090170288085938 0.058778526306152344 0.0
  endloop
 endfacet
 facet normal -0.7705132365226746 0.6374239921569824 0.0
  outer loop
   vertex -0.07289686584472656 0.06845471191406251 -1.0
   vertex -0.08090170288085938 0.058778526306152344 -1.0
   vertex -0.07289686584472656 0.06845471191406251 0.0
  endloop
 endfacet
 facet normal -0.6845468282699585 0.7289689183235168 0.0
  outer loop
   vertex -0.07289686584472656 0.06845471191406251 -1.0
   vertex -0.07289686584472656 0.06845471191406251 0.0
   vertex -0.06374239730834962 0.07705132293701172 0.0
  endloop
 endfacet
 facet normal -0.6845468282699585 0.7289689183235168 0.0
  outer loop
   vertex -0.06374239730834962 0.07705132293701172 -1.0
   vertex -0.07289686584472656 0.06845471191406251 -1.0
   vertex -0.06374239730834962 0.07705132293701172 0.0
  endloop
 endfacet
 facet normal -0.5877853631973267 0.8090168833732605 0.0
  outer loop
   vertex -0.06374239730834962 0.07705132293701172 -1.0
   vertex -0.06374239730834962 0.07705132293701172 0.0
   vertex -0.05358267974853516 0.08443279266357422 0.0
  endloop
 endfacet
 facet normal -0.5877853631973267 0.8090168833732605 0.0
  outer loop
   vertex -0.05358267974853516 0.08443279266357422 -1.0
   vertex -0.06374239730834962 0.07705132293701172 -1.0
   vertex -0.05358267974853516 0.08443279266357422 0.0
  endloop
 endfacet
 facet normal -0.4817536473274231 0.8763066530227661 0.0
  outer loop
   vertex -0.042577930450439457 0.09048270416259765 -1.0
   vertex -0.05358267974853516 0.08443279266357422 -1.0
   vertex -0.05358267974853516 0.08443279266357422 0.0
  endloop
 endfacet
 facet normal -0.4817536473274231 0.8763066530227661 0.0
  outer loop
   vertex -0.042577930450439457 0.09048270416259765 -1.0
   vertex -0.05358267974853516 0.08443279266357422 0.0
   vertex -0.042577930450439457 0.09048270416259765 0.0
  endloop
 endfacet
 facet normal -0.3681245744228363 0.9297764301300049 0.0
  outer loop
   vertex -0.03090169906616211 0.09510565185546875 -1.0
   vertex -0.042577930450439457 0.09048270416259765 -1.0
   vertex -0.042577930450439457 0.09048270416259765 0.0
  endloop
 endfacet
 facet normal -0.3681245744228363 0.9297764301300049 0.0
  outer loop
   vertex -0.03090169906616211 0.09510565185546875 -1.0
   vertex -0.042577930450439457 0.09048270416259765 0.0
   vertex -0.03090169906616211 0.09510565185546875 0.0
  endloop
 endfacet
 facet normal -0.24868960678577423 0.9685832262039185 0.0
  outer loop
   vertex -0.018738130569458007 0.09822872161865234 -1.0
   vertex -0.03090169906616211 0.09510565185546875 -1.0
   vertex -0.03090169906616211 0.09510565185546875 0.0
  endloop
 endfacet
 facet normal -0.24868960678577423 0.9685832262039185 0.0
  outer loop
   vertex -0.018738130569458007 0.09822872161865234 -1.0
   vertex -0.03090169906616211 0.09510565185546875 0.0
   vertex -0.018738130569458007 0.09822872161865234 0.0
  endloop
 endfacet
 facet normal -0.1253335326910019 0.9921146035194397 0.0
  outer loop
   vertex -0.006279051780700684 0.09980267333984376 -1.0
   vertex -0.018738130569458007 0.09822872161865234 -1.0
   vertex -0.018738130569458007 0.09822872161865234 0.0
  endloop
 endfacet
 facet normal -0.1253335326910019 0.9921146035194397 0.0
  outer loop
   vertex -0.006279051780700684 0.09980267333984376 -1.0
   vertex -0.018738130569458007 0.09822872161865234 0.0
   vertex -0.006279051780700684 0.09980267333984376 0.0
  endloop
 endfacet
 facet normal 0.0 1.0 0.0
  outer loop
   vertex 0.006279051780700684 0.09980267333984376 -1.0
   vertex -0.006279051780700684 0.09980267333984376 -1.0
   vertex -0.006279051780700684 0.09980267333984376 0.0
  endloop
 endfacet
 facet normal 0.0 1.0 -0.0
  outer loop
   vertex 0.006279051780700684 0.09980267333984376 -1.0
   vertex -0.006279051780700684 0.09980267333984376 0.0
   vertex 0.006279051780700684 0.09980267333984376 0.0
  endloop
 endfacet
 facet normal 0.1253335326910019 0.9921146035194397 0.0
  outer loop
   vertex 0.018738130569458007 0.09822872161865234 -1.0
   vertex 0.006279051780700684 0.09980267333984376 -1.0
   vertex 0.006279051780700684 0.09980267333984376 0.0
  endloop
 endfacet
 facet normal 0.24868960678577423 0.9685832262039185 -0.0
  outer loop
   vertex 0.018738130569458007 0.09822872161865234 -1.0
   vertex 0.018738130569458007 0.09822872161865234 0.0
   vertex 0.03090169906616211 0.09510565185546875 0.0
  endloop
 endfacet
 facet normal 0.1253335326910019 0.9921146035194397 -0.0
  outer loop
   vertex 0.018738130569458007 0.09822872161865234 -1.0
   vertex 0.006279051780700684 0.09980267333984376 0.0
   vertex 0.018738130569458007 0.09822872161865234 0.0
  endloop
 endfacet
 facet normal 0.24868960678577423 0.9685832262039185 -0.0
  outer loop
   vertex 0.03090169906616211 0.09510565185546875 -1.0
   vertex 0.018738130569458007 0.09822872161865234 -1.0
   vertex 0.03090169906616211 0.09510565185546875 0.0
  endloop
 endfacet
 facet normal 0.4817536473274231 0.8763066530227661 -0.0
  outer loop
   vertex 0.042577930450439457 0.09048270416259765 -1.0
   vertex 0.042577930450439457 0.09048270416259765 0.0
   vertex 0.05358267974853516 0.08443279266357422 0.0
  endloop
 endfacet
 facet normal 0.3681245744228363 0.9297764301300049 -0.0
  outer loop
   vertex 0.042577930450439457 0.09048270416259765 -1.0
   vertex 0.03090169906616211 0.09510565185546875 0.0
   vertex 0.042577930450439457 0.09048270416259765 0.0
  endloop
 endfacet
 facet normal 0.3681245744228363 0.9297764301300049 0.0
  outer loop
   vertex 0.042577930450439457 0.09048270416259765 -1.0
   vertex 0.03090169906616211 0.09510565185546875 -1.0
   vertex 0.03090169906616211 0.09510565185546875 0.0
  endloop
 endfacet
 facet normal 0.4817536473274231 0.8763066530227661 -0.0
  outer loop
   vertex 0.05358267974853516 0.08443279266357422 -1.0
   vertex 0.042577930450439457 0.09048270416259765 -1.0
   vertex 0.05358267974853516 0.08443279266357422 0.0
  endloop
 endfacet
 facet normal 0.6845468282699585 0.7289689183235168 -0.0
  outer loop
   vertex 0.06374239730834962 0.07705132293701172 -1.0
   vertex 0.06374239730834962 0.07705132293701172 0.0
   vertex 0.07289686584472656 0.06845471191406251 0.0
  endloop
 endfacet
 facet normal 0.5877853631973267 0.8090168833732605 -0.0
  outer loop
   vertex 0.06374239730834962 0.07705132293701172 -1.0
   vertex 0.05358267974853516 0.08443279266357422 0.0
   vertex 0.06374239730834962 0.07705132293701172 0.0
  endloop
 endfacet
 facet normal 0.5877853631973267 0.8090168833732605 0.0
  outer loop
   vertex 0.06374239730834962 0.07705132293701172 -1.0
   vertex 0.05358267974853516 0.08443279266357422 -1.0
   vertex 0.05358267974853516 0.08443279266357422 0.0
  endloop
 endfacet
 facet normal 0.6845468282699585 0.7289689183235168 -0.0
  outer loop
   vertex 0.07289686584472656 0.06845471191406251 -1.0
   vertex 0.06374239730834962 0.07705132293701172 -1.0
   vertex 0.07289686584472656 0.06845471191406251 0.0
  endloop
 endfacet
 facet normal 0.8443280458450317 0.5358266830444336 -0.0
  outer loop
   vertex 0.08090170288085938 0.058778526306152344 -1.0
   vertex 0.08090170288085938 0.058778526306152344 0.0
   vertex 0.08763066864013672 0.04817536926269531 0.0
  endloop
 endfacet
 facet normal 0.7705132365226746 0.6374239921569824 -0.0
  outer loop
   vertex 0.08090170288085938 0.058778526306152344 -1.0
   vertex 0.07289686584472656 0.06845471191406251 0.0
   vertex 0.08090170288085938 0.058778526306152344 0.0
  endloop
 endfacet
 facet normal 0.7705132365226746 0.6374239921569824 0.0
  outer loop
   vertex 0.08090170288085938 0.058778526306152344 -1.0
   vertex 0.07289686584472656 0.06845471191406251 -1.0
   vertex 0.07289686584472656 0.06845471191406251 0.0
  endloop
 endfacet
 facet normal 0.9048272371292114 0.42577898502349854 -0.0
  outer loop
   vertex 0.08763066864013672 0.04817536926269531 -1.0
   vertex 0.08763066864013672 0.04817536926269531 0.0
   vertex 0.09297764587402343 0.036812454223632815 0.0
  endloop
 endfacet
 facet normal 0.8443280458450317 0.5358266830444336 -0.0
  outer loop
   vertex 0.08763066864013672 0.04817536926269531 -1.0
   vertex 0.08090170288085938 0.058778526306152344 -1.0
   vertex 0.08763066864013672 0.04817536926269531 0.0
  endloop
 endfacet
 facet normal 0.9048272371292114 0.42577898502349854 -0.0
  outer loop
   vertex 0.09297764587402343 0.036812454223632815 -1.0
   vertex 0.08763066864013672 0.04817536926269531 -1.0
   vertex 0.09297764587402343 0.036812454223632815 0.0
  endloop
 endfacet
 facet normal 0.9510564804077148 0.3090170919895172 -0.0
  outer loop
   vertex 0.09685831451416016 0.024868988037109376 -1.0
   vertex 0.09297764587402343 0.036812454223632815 0.0
   vertex 0.09685831451416016 0.024868988037109376 0.0
  endloop
 endfacet
 facet normal 0.9510564804077148 0.3090170919895172 0.0
  outer loop
   vertex 0.09685831451416016 0.024868988037109376 -1.0
   vertex 0.09297764587402343 0.036812454223632815 -1.0
   vertex 0.09297764587402343 0.036812454223632815 0.0
  endloop
 endfacet
 facet normal 0.9822872281074524 0.1873815506696701 -0.0
  outer loop
   vertex 0.09921147155761718 0.012533323287963867 -1.0
   vertex 0.09685831451416016 0.024868988037109376 0.0
   vertex 0.09921147155761718 0.012533323287963867 0.0
  endloop
 endfacet
 facet normal 0.9822872281074524 0.1873815506696701 0.0
  outer loop
   vertex 0.09921147155761718 0.012533323287963867 -1.0
   vertex 0.09685831451416016 0.024868988037109376 -1.0
   vertex 0.09685831451416016 0.024868988037109376 0.0
  endloop
 endfacet
 facet normal 0.9980267286300659 0.0627904087305069 0.0
  outer loop
   vertex 0.1 5.680000198481083e-16 -1.0
   vertex 0.09921147155761718 0.012533323287963867 -1.0
   vertex 0.09921147155761718 0.012533323287963867 0.0
  endloop
 endfacet
 facet normal 0.9980267286300659 0.0627904087305069 3.5664950901407856e-17
  outer loop
   vertex 0.1 5.680000198481083e-16 -1.0
   vertex 0.09921147155761718 0.012533323287963867 0.0
   vertex 0.1 0.0 0.0
  endloop
 endfacet
endsolid patch_3_1
