solid patch_2_0
 facet normal 8.620610606158152e-05 0.7070594429969788 -0.7071540951728821
  outer loop
   vertex -0.07289686584472656 0.8140902099609375 -1.800123291015625
   vertex -0.08090170288085938 0.8072481079101562 -1.8069654541015625
   vertex -0.07705132293701172 0.8107581176757813 -1.8034554443359376
  endloop
 endfacet
 facet normal -2.573858182586264e-05 0.7071251273155212 -0.7070884108543396
  outer loop
   vertex -0.07289686584472656 0.8140902099609375 -1.800123291015625
   vertex -0.05358267974853516 0.825388427734375 -1.7888251953125
   vertex -0.08090170288085938 0.8072481079101562 -1.8069654541015625
  endloop
 endfacet
 facet normal -0.00012853760563302785 0.7072319984436035 -0.7069814801216125
  outer loop
   vertex -0.058778526306152344 0.8228915405273438 -1.791322021484375
   vertex -0.05358267974853516 0.825388427734375 -1.7888251953125
   vertex -0.06374239730834962 0.8201689453125001 -1.794044677734375
  endloop
 endfacet
 facet normal 4.2902465793304145e-05 0.7070650458335876 -0.707148551940918
  outer loop
   vertex -0.06374239730834962 0.8201689453125001 -1.794044677734375
   vertex -0.05358267974853516 0.825388427734375 -1.7888251953125
   vertex -0.06845471191406251 0.8172312622070312 -1.7969822998046876
  endloop
 endfacet
 facet normal 2.059451253444422e-05 0.7070853114128113 -0.7071282863616943
  outer loop
   vertex -0.06845471191406251 0.8172312622070312 -1.7969822998046876
   vertex -0.05358267974853516 0.825388427734375 -1.7888251953125
   vertex -0.07289686584472656 0.8140902099609375 -1.800123291015625
  endloop
 endfacet
 facet normal -0.00021064767497591674 0.7073779702186584 -0.7068354487419128
  outer loop
   vertex -0.04817536926269531 0.827649658203125 -1.7865638427734376
   vertex -0.042577930450439457 0.8296663818359375 -1.7845472412109376
   vertex -0.05358267974853516 0.825388427734375 -1.7888251953125
  endloop
 endfacet
 facet normal -9.401966963196173e-05 0.7071460485458374 -0.7070674896240234
  outer loop
   vertex -0.08090170288085938 0.8072481079101562 -1.8069654541015625
   vertex -0.09048270416259765 0.7957925415039062 -1.8184210205078126
   vertex -0.08443279266357422 0.8035740966796875 -1.810639404296875
  endloop
 endfacet
 facet normal 9.775200305739418e-05 0.7070717811584473 -0.7071418166160583
  outer loop
   vertex -0.08443279266357422 0.8035740966796875 -1.810639404296875
   vertex -0.09048270416259765 0.7957925415039062 -1.8184210205078126
   vertex -0.08763066864013672 0.7997505493164062 -1.8144630126953125
  endloop
 endfacet
 facet normal -0.0001609332684893161 0.7073941826820374 -0.7068192958831787
  outer loop
   vertex -0.036812454223632815 0.8314305419921875 -1.782782958984375
   vertex -0.03090169906616211 0.832935302734375 -1.7812783203125
   vertex -0.042577930450439457 0.8296663818359375 -1.7845472412109376
  endloop
 endfacet
 facet normal -1.8983191694132984e-05 0.7071148157119751 -0.7070987224578857
  outer loop
   vertex -0.08090170288085938 0.8072481079101562 -1.8069654541015625
   vertex -0.09510565185546875 0.7875362548828125 -1.8266773681640625
   vertex -0.09048270416259765 0.7957925415039062 -1.8184210205078126
  endloop
 endfacet
 facet normal -0.00010005875810747966 0.7071375250816345 -0.7070759534835815
  outer loop
   vertex -0.09048270416259765 0.7957925415039062 -1.8184210205078126
   vertex -0.09510565185546875 0.7875362548828125 -1.8266773681640625
   vertex -0.09297764587402343 0.7917157592773437 -1.822497802734375
  endloop
 endfacet
 facet normal 7.067016667861026e-06 0.7070977687835693 -0.707115888595581
  outer loop
   vertex -0.042577930450439457 0.8296663818359375 -1.7845472412109376
   vertex -0.024868988037109376 0.8341746215820313 -1.7800389404296875
   vertex -0.05358267974853516 0.825388427734375 -1.7888251953125
  endloop
 endfacet
 facet normal 2.6912191970041022e-05 0.7070587873458862 -0.7071547508239746
  outer loop
   vertex -0.03090169906616211 0.832935302734375 -1.7812783203125
   vertex -0.024868988037109376 0.8341746215820313 -1.7800389404296875
   vertex -0.042577930450439457 0.8296663818359375 -1.7845472412109376
  endloop
 endfacet
 facet normal 5.418074579210952e-06 0.7071058750152588 -0.7071077227592468
  outer loop
   vertex -0.08090170288085938 0.8072481079101562 -1.8069654541015625
   vertex -0.09921147155761718 0.7745478515625001 -1.839665771484375
   vertex -0.09510565185546875 0.7875362548828125 -1.8266773681640625
  endloop
 endfacet
 facet normal -0.00010687291796784848 0.7071236371994019 -0.7070899605751038
  outer loop
   vertex -0.09510565185546875 0.7875362548828125 -1.8266773681640625
   vertex -0.09921147155761718 0.7745478515625001 -1.839665771484375
   vertex -0.09685831451416016 0.7832704467773438 -1.8309431152343751
  endloop
 endfacet
 facet normal 0.00010776034469017759 0.7070949077606201 -0.7071187496185303
  outer loop
   vertex -0.09685831451416016 0.7832704467773438 -1.8309431152343751
   vertex -0.09921147155761718 0.7745478515625001 -1.839665771484375
   vertex -0.09822872161865234 0.7789353027343751 -1.8352783203125
  endloop
 endfacet
 facet normal -4.4518328650156036e-05 0.7073365449905396 -0.7068769931793213
  outer loop
   vertex -0.012533323287963867 0.8358385009765625 -1.778375
   vertex -0.006279051780700684 0.8362565917968751 -1.77795703125
   vertex -0.018738130569458007 0.8351436157226563 -1.7790699462890625
  endloop
 endfacet
 facet normal -7.96456151874736e-06 0.7071319818496704 -0.7070815563201904
  outer loop
   vertex -0.018738130569458007 0.8351436157226563 -1.7790699462890625
   vertex -0.006279051780700684 0.8362565917968751 -1.77795703125
   vertex -0.024868988037109376 0.8341746215820313 -1.7800389404296875
  endloop
 endfacet
 facet normal 4.901091961073689e-05 0.7070938348770142 -0.7071197628974915
  outer loop
   vertex -0.08090170288085938 0.8072481079101562 -1.8069654541015625
   vertex -0.09980267333984376 0.7701253662109375 -1.844088134765625
   vertex -0.09921147155761718 0.7745478515625001 -1.839665771484375
  endloop
 endfacet
 facet normal -3.2819884836499114e-06 0.7071080207824707 -0.7071055173873901
  outer loop
   vertex -0.05358267974853516 0.825388427734375 -1.7888251953125
   vertex -0.1 0.7656854248046875 -1.8485281982421875
   vertex -0.08090170288085938 0.8072481079101562 -1.8069654541015625
  endloop
 endfacet
 facet normal -4.394999996293336e-05 0.7071171998977661 -0.7070963382720947
  outer loop
   vertex -0.08090170288085938 0.8072481079101562 -1.8069654541015625
   vertex -0.1 0.7656854248046875 -1.8485281982421875
   vertex -0.09980267333984376 0.7701253662109375 -1.844088134765625
  endloop
 endfacet
 facet normal 0.0 0.7071067690849304 -0.7071067690849304
  outer loop
   vertex -6.049014642049017e-17 0.8363961181640626 -1.7778175048828124
   vertex 0.006279051780700684 0.8362565917968751 -1.77795703125
   vertex -0.006279051780700684 0.8362565917968751 -1.77795703125
  endloop
 endfacet
 facet normal 0.0 0.7070963978767395 -0.7071171402931213
  outer loop
   vertex -0.006279051780700684 0.8362565917968751 -1.77795703125
   vertex 0.006279051780700684 0.8362565917968751 -1.77795703125
   vertex -0.024868988037109376 0.8341746215820313 -1.7800389404296875
  endloop
 endfacet
 facet normal 0.0002185948978876695 0.7071115970611572 -0.7071018815040588
  outer loop
   vertex -0.1 0.7656854248046875 -1.8485281982421875
   vertex -0.09921147155761718 0.756822998046875 -1.8573905029296875
   vertex -0.09980267333984376 0.7612454833984376 -1.8529681396484374
  endloop
 endfacet
 facet normal 4.4518328650156036e-05 0.7073365449905396 -0.7068769931793213
  outer loop
   vertex 0.012533323287963867 0.8358385009765625 -1.778375
   vertex 0.018738130569458007 0.8351436157226563 -1.7790699462890625
   vertex 0.006279051780700684 0.8362565917968751 -1.77795703125
  endloop
 endfacet
 facet normal 6.898702622493147e-07 0.7070912718772888 -0.707122266292572
  outer loop
   vertex 0.006279051780700684 0.8362565917968751 -1.77795703125
   vertex 0.018738130569458007 0.8351436157226563 -1.7790699462890625
   vertex -0.024868988037109376 0.8341746215820313 -1.7800389404296875
  endloop
 endfacet
 facet normal 7.18536057320307e-06 0.7071039080619812 -0.7071096897125244
  outer loop
   vertex -0.05358267974853516 0.825388427734375 -1.7888251953125
   vertex -0.09822872161865234 0.752435546875 -1.8617779541015624
   vertex -0.1 0.7656854248046875 -1.8485281982421875
  endloop
 endfacet
 facet normal -7.193254714366049e-05 0.7070987820625305 -0.7071148157119751
  outer loop
   vertex -0.1 0.7656854248046875 -1.8485281982421875
   vertex -0.09822872161865234 0.752435546875 -1.8617779541015624
   vertex -0.09921147155761718 0.756822998046875 -1.8573905029296875
  endloop
 endfacet
 facet normal 0.0 0.7071067690849304 -0.7071067690849304
  outer loop
   vertex 0.018738130569458007 0.8351436157226563 -1.7790699462890625
   vertex 0.024868988037109376 0.8341746215820313 -1.7800389404296875
   vertex -0.024868988037109376 0.8341746215820313 -1.7800389404296875
  endloop
 endfacet
 facet normal 0.0 0.7071241140365601 -0.707089364528656
  outer loop
   vertex 0.024868988037109376 0.8341746215820313 -1.7800389404296875
   vertex 0.03090169906616211 0.832935302734375 -1.7812783203125
   vertex -0.024868988037109376 0.8341746215820313 -1.7800389404296875
  endloop
 endfacet
 facet normal 6.936353020137176e-05 0.7071226835250854 -0.7070908546447754
  outer loop
   vertex -0.09822872161865234 0.752435546875 -1.8617779541015624
   vertex -0.09297764587402343 0.7396550903320313 -1.8745584716796875
   vertex -0.09685831451416016 0.7481004028320313 -1.8661131591796876
  endloop
 endfacet
 facet normal -0.00020781355851795524 0.7070590853691101 -0.7071545124053955
  outer loop
   vertex -0.09685831451416016 0.7481004028320313 -1.8661131591796876
   vertex -0.09297764587402343 0.7396550903320313 -1.8745584716796875
   vertex -0.09510565185546875 0.7438345947265625 -1.87037890625
  endloop
 endfacet
 facet normal -4.344443368609063e-06 0.7071076035499573 -0.7071059346199036
  outer loop
   vertex -0.05358267974853516 0.825388427734375 -1.7888251953125
   vertex -0.09297764587402343 0.7396550903320313 -1.8745584716796875
   vertex -0.09822872161865234 0.752435546875 -1.8617779541015624
  endloop
 endfacet
 facet normal 0.0001609332684893161 0.7073941826820374 -0.7068192958831787
  outer loop
   vertex 0.036812454223632815 0.8314305419921875 -1.782782958984375
   vertex 0.042577930450439457 0.8296663818359375 -1.7845472412109376
   vertex 0.03090169906616211 0.832935302734375 -1.7812783203125
  endloop
 endfacet
 facet normal -5.376108310883865e-05 0.7070107460021973 -0.707202672958374
  outer loop
   vertex 0.042577930450439457 0.8296663818359375 -1.7845472412109376
   vertex 0.04817536926269531 0.827649658203125 -1.7865638427734376
   vertex 0.03090169906616211 0.832935302734375 -1.7812783203125
  endloop
 endfacet
 facet normal 0.0 0.7071092128753662 -0.7071043252944946
  outer loop
   vertex -0.024868988037109376 0.8341746215820313 -1.7800389404296875
   vertex 0.05358267974853516 0.825388427734375 -1.7888251953125
   vertex -0.05358267974853516 0.825388427734375 -1.7888251953125
  endloop
 endfacet
 facet normal -2.127615630342916e-07 0.7071067094802856 -0.7071068286895752
  outer loop
   vertex -0.09297764587402343 0.7396550903320313 -1.8745584716796875
   vertex 0.05358267974853516 0.825388427734375 -1.7888251953125
   vertex -0.09048270416259765 0.7355783081054688 -1.87863525390625
  endloop
 endfacet
 facet normal -8.292349775729235e-07 0.7071055769920349 -0.7071080207824707
  outer loop
   vertex 0.03090169906616211 0.832935302734375 -1.7812783203125
   vertex 0.05358267974853516 0.825388427734375 -1.7888251953125
   vertex -0.024868988037109376 0.8341746215820313 -1.7800389404296875
  endloop
 endfacet
 facet normal 0.0 0.7071065306663513 -0.7071070075035095
  outer loop
   vertex -0.05358267974853516 0.825388427734375 -1.7888251953125
   vertex 0.05358267974853516 0.825388427734375 -1.7888251953125
   vertex -0.09297764587402343 0.7396550903320313 -1.8745584716796875
  endloop
 endfacet
 facet normal 6.215848407009616e-05 0.7072002291679382 -0.7070133686065674
  outer loop
   vertex 0.04817536926269531 0.827649658203125 -1.7865638427734376
   vertex 0.05358267974853516 0.825388427734375 -1.7888251953125
   vertex 0.03090169906616211 0.832935302734375 -1.7812783203125
  endloop
 endfacet
 facet normal -9.775200305739418e-05 0.7070717811584473 -0.7071418166160583
  outer loop
   vertex -0.09048270416259765 0.7355783081054688 -1.87863525390625
   vertex -0.08443279266357422 0.7277967529296875 -1.8864168701171875
   vertex -0.08763066864013672 0.7316203002929688 -1.88259326171875
  endloop
 endfacet
 facet normal -5.0166272558271885e-06 0.7071100473403931 -0.707103431224823
  outer loop
   vertex 0.06374239730834962 0.8201689453125001 -1.794044677734375
   vertex -0.07705132293701172 0.7206127319335938 -1.893600830078125
   vertex 0.058778526306152344 0.8228915405273438 -1.791322021484375
  endloop
 endfacet
 facet normal 5.069012331659906e-06 0.7071033716201782 -0.7071101069450378
  outer loop
   vertex 0.058778526306152344 0.8228915405273438 -1.791322021484375
   vertex -0.07705132293701172 0.7206127319335938 -1.893600830078125
   vertex 0.05358267974853516 0.825388427734375 -1.7888251953125
  endloop
 endfacet
 facet normal -8.621521556051448e-05 0.7070594429969788 -0.7071541547775269
  outer loop
   vertex -0.08443279266357422 0.7277967529296875 -1.8864168701171875
   vertex -0.07705132293701172 0.7206127319335938 -1.893600830078125
   vertex -0.08090170288085938 0.7241227416992188 -1.8900908203125
  endloop
 endfacet
 facet normal -2.0537579814572382e-07 0.7071068286895752 -0.7071068286895752
  outer loop
   vertex 0.05358267974853516 0.825388427734375 -1.7888251953125
   vertex -0.07705132293701172 0.7206127319335938 -1.893600830078125
   vertex -0.09048270416259765 0.7355783081054688 -1.87863525390625
  endloop
 endfacet
 facet normal 4.5931123167974874e-05 0.7071273922920227 -0.7070861458778381
  outer loop
   vertex -0.09048270416259765 0.7355783081054688 -1.87863525390625
   vertex -0.07705132293701172 0.7206127319335938 -1.893600830078125
   vertex -0.08443279266357422 0.7277967529296875 -1.8864168701171875
  endloop
 endfacet
 facet normal 0.00015929857909213752 0.7072125673294067 -0.7070009708404541
  outer loop
   vertex -0.07705132293701172 0.7206127319335938 -1.893600830078125
   vertex -0.06845471191406251 0.7141395874023437 -1.900073974609375
   vertex -0.07289686584472656 0.7172806396484375 -1.8969329833984376
  endloop
 endfacet
 facet normal 0.00015929857909213752 0.7072125673294067 -0.7070009708404541
  outer loop
   vertex 0.07289686584472656 0.8140902099609375 -1.800123291015625
   vertex 0.07705132293701172 0.8107581176757813 -1.8034554443359376
   vertex 0.06845471191406251 0.8172312622070312 -1.7969822998046876
  endloop
 endfacet
 facet normal -1.9878292732755654e-05 0.7070934772491455 -0.7071200609207153
  outer loop
   vertex 0.07705132293701172 0.8107581176757813 -1.8034554443359376
   vertex 0.08443279266357422 0.8035740966796875 -1.810639404296875
   vertex 0.06845471191406251 0.8172312622070312 -1.7969822998046876
  endloop
 endfacet
 facet normal -8.621514280093834e-05 0.7070592045783997 -0.7071542739868164
  outer loop
   vertex 0.08090170288085938 0.8072481079101562 -1.8069654541015625
   vertex 0.08443279266357422 0.8035740966796875 -1.810639404296875
   vertex 0.07705132293701172 0.8107581176757813 -1.8034554443359376
  endloop
 endfacet
 facet normal 0.0 0.7071067690849304 -0.7071067690849304
  outer loop
   vertex -0.07705132293701172 0.7206127319335938 -1.893600830078125
   vertex 0.09048270416259765 0.7957925415039062 -1.8184210205078126
   vertex -0.06845471191406251 0.7141395874023437 -1.900073974609375
  endloop
 endfacet
 facet normal -9.73671703832224e-05 0.7070715427398682 -0.7071419954299927
  outer loop
   vertex 0.08763066864013672 0.7997505493164062 -1.8144630126953125
   vertex 0.09048270416259765 0.7957925415039062 -1.8184210205078126
   vertex 0.08443279266357422 0.8035740966796875 -1.810639404296875
  endloop
 endfacet
 facet normal 2.547699841670692e-05 0.7071198225021362 -0.7070937156677246
  outer loop
   vertex 0.06845471191406251 0.8172312622070312 -1.7969822998046876
   vertex 0.09048270416259765 0.7957925415039062 -1.8184210205078126
   vertex 0.06374239730834962 0.8201689453125001 -1.794044677734375
  endloop
 endfacet
 facet normal 2.211706123489421e-05 0.7071180939674377 -0.7070955038070679
  outer loop
   vertex 0.08443279266357422 0.8035740966796875 -1.810639404296875
   vertex 0.09048270416259765 0.7957925415039062 -1.8184210205078126
   vertex 0.06845471191406251 0.8172312622070312 -1.7969822998046876
  endloop
 endfacet
 facet normal 4.129976787226042e-06 0.7071027755737305 -0.7071107625961304
  outer loop
   vertex -0.06845471191406251 0.7141395874023437 -1.900073974609375
   vertex 0.09048270416259765 0.7957925415039062 -1.8184210205078126
   vertex -0.06374239730834962 0.711201904296875 -1.9030115966796874
  endloop
 endfacet
 facet normal -4.496765996009344e-06 0.707110583782196 -0.7071029543876648
  outer loop
   vertex -0.06374239730834962 0.711201904296875 -1.9030115966796874
   vertex 0.09048270416259765 0.7957925415039062 -1.8184210205078126
   vertex -0.058778526306152344 0.7084793090820313 -1.9057342529296875
  endloop
 endfacet
 facet normal 5.382223662309116e-07 0.7071061730384827 -0.7071073055267334
  outer loop
   vertex 0.06374239730834962 0.8201689453125001 -1.794044677734375
   vertex 0.09048270416259765 0.7957925415039062 -1.8184210205078126
   vertex -0.07705132293701172 0.7206127319335938 -1.893600830078125
  endloop
 endfacet
 facet normal 0.00021084015315864235 0.7073779106140137 -0.7068354487419128
  outer loop
   vertex -0.05358267974853516 0.705982421875 -1.9082310791015626
   vertex -0.042577930450439457 0.7017044677734375 -1.912509033203125
   vertex -0.04817536926269531 0.70372119140625 -1.910492431640625
  endloop
 endfacet
 facet normal -7.039416232146323e-05 0.7070163488388062 -0.7071971893310547
  outer loop
   vertex -0.05358267974853516 0.705982421875 -1.9082310791015626
   vertex -0.036812454223632815 0.6999403076171875 -1.9142733154296876
   vertex -0.042577930450439457 0.7017044677734375 -1.912509033203125
  endloop
 endfacet
 facet normal -4.5434426283463836e-05 0.7070508003234863 -0.7071627974510193
  outer loop
   vertex -0.058778526306152344 0.7084793090820313 -1.9057342529296875
   vertex -0.036812454223632815 0.6999403076171875 -1.9142733154296876
   vertex -0.05358267974853516 0.705982421875 -1.9082310791015626
  endloop
 endfacet
 facet normal 1.7088407275878126e-06 0.7071114182472229 -0.7071020603179932
  outer loop
   vertex -0.058778526306152344 0.7084793090820313 -1.9057342529296875
   vertex -0.012533323287963867 0.6955323486328125 -1.9186812744140624
   vertex -0.036812454223632815 0.6999403076171875 -1.9142733154296876
  endloop
 endfacet
 facet normal -3.629675484262407e-05 0.7070067524909973 -0.7072067260742188
  outer loop
   vertex -0.036812454223632815 0.6999403076171875 -1.9142733154296876
   vertex -0.012533323287963867 0.6955323486328125 -1.9186812744140624
   vertex -0.03090169906616211 0.698435546875 -1.9157779541015625
  endloop
 endfacet
 facet normal 3.49998799720197e-06 0.7071326971054077 -0.7070807814598083
  outer loop
   vertex -0.03090169906616211 0.698435546875 -1.9157779541015625
   vertex -0.012533323287963867 0.6955323486328125 -1.9186812744140624
   vertex -0.024868988037109376 0.6971962280273437 -1.917017333984375
  endloop
 endfacet
 facet normal -2.386407504673116e-05 0.7070313096046448 -0.7071822285652161
  outer loop
   vertex -0.024868988037109376 0.6971962280273437 -1.917017333984375
   vertex -0.012533323287963867 0.6955323486328125 -1.9186812744140624
   vertex -0.018738130569458007 0.6962272338867188 -1.917986328125
  endloop
 endfacet
 facet normal -0.00021628220565617085 0.7070826292037964 -0.7071309089660645
  outer loop
   vertex 0.09921147155761718 0.7745478515625001 -1.839665771484375
   vertex 0.09980267333984376 0.7701253662109375 -1.844088134765625
   vertex 0.09822872161865234 0.7789353027343751 -1.8352783203125
  endloop
 endfacet
 facet normal -6.873357506265165e-06 0.7069520950317383 -0.7072615027427673
  outer loop
   vertex -0.012533323287963867 0.6955323486328125 -1.9186812744140624
   vertex -1.8369701782925894e-17 0.6949747314453125 -1.91923876953125
   vertex -0.006279051780700684 0.6951142578125 -1.9190992431640626
  endloop
 endfacet
 facet normal -5.457128645502962e-05 0.7071031332015991 -0.7071104049682617
  outer loop
   vertex 0.09822872161865234 0.7789353027343751 -1.8352783203125
   vertex 0.1 0.7656854248046875 -1.8485281982421875
   vertex 0.09685831451416016 0.7832704467773438 -1.8309431152343751
  endloop
 endfacet
 facet normal 5.419903391157277e-05 0.7071128487586975 -0.7071007490158081
  outer loop
   vertex 0.09685831451416016 0.7832704467773438 -1.8309431152343751
   vertex 0.1 0.7656854248046875 -1.8485281982421875
   vertex 0.09510565185546875 0.7875362548828125 -1.8266773681640625
  endloop
 endfacet
 facet normal -3.6251738492865115e-05 0.7071027159690857 -0.7071108222007751
  outer loop
   vertex 0.09510565185546875 0.7875362548828125 -1.8266773681640625
   vertex 0.1 0.7656854248046875 -1.8485281982421875
   vertex 0.09297764587402343 0.7917157592773437 -1.822497802734375
  endloop
 endfacet
 facet normal 4.902248747384874e-06 0.7071082592010498 -0.707105278968811
  outer loop
   vertex 0.09297764587402343 0.7917157592773437 -1.822497802734375
   vertex 0.1 0.7656854248046875 -1.8485281982421875
   vertex 0.09048270416259765 0.7957925415039062 -1.8184210205078126
  endloop
 endfacet
 facet normal 0.00021785007265862077 0.7071213126182556 -0.7070922255516052
  outer loop
   vertex 0.09980267333984376 0.7701253662109375 -1.844088134765625
   vertex 0.1 0.7656854248046875 -1.8485281982421875
   vertex 0.09822872161865234 0.7789353027343751 -1.8352783203125
  endloop
 endfacet
 facet normal 4.4984361124988936e-07 0.707106351852417 -0.7071071863174438
  outer loop
   vertex 0.09048270416259765 0.7957925415039062 -1.8184210205078126
   vertex 0.006279051780700684 0.6951142578125 -1.9190992431640626
   vertex -0.058778526306152344 0.7084793090820313 -1.9057342529296875
  endloop
 endfacet
 facet normal 5.1005108616664074e-06 0.70711749792099 -0.7070961594581604
  outer loop
   vertex -0.058778526306152344 0.7084793090820313 -1.9057342529296875
   vertex 0.006279051780700684 0.6951142578125 -1.9190992431640626
   vertex -0.012533323287963867 0.6955323486328125 -1.9186812744140624
  endloop
 endfacet
 facet normal 2.2941449060454033e-06 0.7070552110671997 -0.7071583867073059
  outer loop
   vertex -0.012533323287963867 0.6955323486328125 -1.9186812744140624
   vertex 0.006279051780700684 0.6951142578125 -1.9190992431640626
   vertex -1.8369701782925894e-17 0.6949747314453125 -1.91923876953125
  endloop
 endfacet
 facet normal -4.4518328650156036e-05 0.7073364853858948 -0.7068769931793213
  outer loop
   vertex 0.006279051780700684 0.6951142578125 -1.9190992431640626
   vertex 0.018738130569458007 0.6962272338867188 -1.917986328125
   vertex 0.012533323287963867 0.6955323486328125 -1.9186812744140624
  endloop
 endfacet
 facet normal -1.7678928998066112e-05 0.7071046829223633 -0.7071088552474976
  outer loop
   vertex 0.1 0.7656854248046875 -1.8485281982421875
   vertex 0.09822872161865234 0.752435546875 -1.8617779541015624
   vertex 0.09048270416259765 0.7957925415039062 -1.8184210205078126
  endloop
 endfacet
 facet normal 0.00021628220565617085 0.7070826292037964 -0.7071309089660645
  outer loop
   vertex 0.09921147155761718 0.756822998046875 -1.8573905029296875
   vertex 0.09822872161865234 0.752435546875 -1.8617779541015624
   vertex 0.09980267333984376 0.7612454833984376 -1.8529681396484374
  endloop
 endfacet
 facet normal -7.296055991901085e-05 0.7071083784103394 -0.7071051597595215
  outer loop
   vertex 0.09980267333984376 0.7612454833984376 -1.8529681396484374
   vertex 0.09822872161865234 0.752435546875 -1.8617779541015624
   vertex 0.1 0.7656854248046875 -1.8485281982421875
  endloop
 endfacet
 facet normal -7.964558790263254e-06 0.7071320414543152 -0.7070814371109009
  outer loop
   vertex 0.006279051780700684 0.6951142578125 -1.9190992431640626
   vertex 0.024868988037109376 0.6971962280273437 -1.917017333984375
   vertex 0.018738130569458007 0.6962272338867188 -1.917986328125
  endloop
 endfacet
 facet normal 7.398534762614872e-06 0.7071069478988647 -0.7071065902709961
  outer loop
   vertex 0.09822872161865234 0.752435546875 -1.8617779541015624
   vertex 0.09297764587402343 0.7396550903320313 -1.8745584716796875
   vertex 0.09048270416259765 0.7957925415039062 -1.8184210205078126
  endloop
 endfacet
 facet normal 0.00020781357306987047 0.7070589661598206 -0.7071545720100403
  outer loop
   vertex 0.09510565185546875 0.7438345947265625 -1.87037890625
   vertex 0.09297764587402343 0.7396550903320313 -1.8745584716796875
   vertex 0.09685831451416016 0.7481004028320313 -1.8661131591796876
  endloop
 endfacet
 facet normal -6.936352292541414e-05 0.7071227431297302 -0.7070908546447754
  outer loop
   vertex 0.09685831451416016 0.7481004028320313 -1.8661131591796876
   vertex 0.09297764587402343 0.7396550903320313 -1.8745584716796875
   vertex 0.09822872161865234 0.752435546875 -1.8617779541015624
  endloop
 endfacet
 facet normal -6.062602551537566e-06 0.7071234583854675 -0.7070900797843933
  outer loop
   vertex 0.006279051780700684 0.6951142578125 -1.9190992431640626
   vertex 0.042577930450439457 0.7017044677734375 -1.912509033203125
   vertex 0.024868988037109376 0.6971962280273437 -1.917017333984375
  endloop
 endfacet
 facet normal 2.6847963454201818e-05 0.7070587277412415 -0.7071548104286194
  outer loop
   vertex 0.024868988037109376 0.6971962280273437 -1.917017333984375
   vertex 0.042577930450439457 0.7017044677734375 -1.912509033203125
   vertex 0.03090169906616211 0.698435546875 -1.9157779541015625
  endloop
 endfacet
 facet normal -0.00016102954396046698 0.7073941230773926 -0.7068192362785339
  outer loop
   vertex 0.03090169906616211 0.698435546875 -1.9157779541015625
   vertex 0.042577930450439457 0.7017044677734375 -1.912509033203125
   vertex 0.036812454223632815 0.6999403076171875 -1.9142733154296876
  endloop
 endfacet
 facet normal 0.0001789841626305133 0.7069119811058044 -0.7073014974594116
  outer loop
   vertex 0.04817536926269531 0.70372119140625 -1.910492431640625
   vertex 0.058778526306152344 0.7084793090820313 -1.9057342529296875
   vertex 0.05358267974853516 0.705982421875 -1.9082310791015626
  endloop
 endfacet
 facet normal -0.00018470456416253 0.7071895003318787 -0.7070240378379822
  outer loop
   vertex 0.08443279266357422 0.7277967529296875 -1.8864168701171875
   vertex 0.08090170288085938 0.7241227416992188 -1.8900908203125
   vertex 0.08763066864013672 0.7316203002929688 -1.88259326171875
  endloop
 endfacet
 facet normal 0.0 0.7071067690849304 -0.7071067690849304
  outer loop
   vertex 0.08763066864013672 0.7316203002929688 -1.88259326171875
   vertex 0.08090170288085938 0.7241227416992188 -1.8900908203125
   vertex 0.09048270416259765 0.7355783081054688 -1.87863525390625
  endloop
 endfacet
 facet normal 0.0 0.7071068286895752 -0.7071068286895752
  outer loop
   vertex 0.006279051780700684 0.6951142578125 -1.9190992431640626
   vertex 0.06374239730834962 0.711201904296875 -1.9030115966796874
   vertex 0.042577930450439457 0.7017044677734375 -1.912509033203125
  endloop
 endfacet
 facet normal -7.82471543061547e-05 0.707193911075592 -0.7070196866989136
  outer loop
   vertex 0.042577930450439457 0.7017044677734375 -1.912509033203125
   vertex 0.06374239730834962 0.711201904296875 -1.9030115966796874
   vertex 0.04817536926269531 0.70372119140625 -1.910492431640625
  endloop
 endfacet
 facet normal -1.6442550986539572e-05 0.7071293592453003 -0.7070841789245605
  outer loop
   vertex 0.04817536926269531 0.70372119140625 -1.910492431640625
   vertex 0.06374239730834962 0.711201904296875 -1.9030115966796874
   vertex 0.058778526306152344 0.7084793090820313 -1.9057342529296875
  endloop
 endfacet
 facet normal 0.0 0.7071067690849304 -0.7071067690849304
  outer loop
   vertex 0.09048270416259765 0.7355783081054688 -1.87863525390625
   vertex 0.07705132293701172 0.7206127319335938 -1.893600830078125
   vertex 0.09297764587402343 0.7396550903320313 -1.8745584716796875
  endloop
 endfacet
 facet normal 0.0 0.7071068286895752 -0.7071068286895752
  outer loop
   vertex 0.08090170288085938 0.7241227416992188 -1.8900908203125
   vertex 0.07705132293701172 0.7206127319335938 -1.893600830078125
   vertex 0.09048270416259765 0.7355783081054688 -1.87863525390625
  endloop
 endfacet
 facet normal -8.89531463599269e-07 0.7071069478988647 -0.7071066498756409
  outer loop
   vertex 0.09048270416259765 0.7957925415039062 -1.8184210205078126
   vertex 0.06845471191406251 0.7141395874023437 -1.900073974609375
   vertex 0.006279051780700684 0.6951142578125 -1.9190992431640626
  endloop
 endfacet
 facet normal 0.0 0.7071067690849304 -0.7071067690849304
  outer loop
   vertex 0.09297764587402343 0.7396550903320313 -1.8745584716796875
   vertex 0.06845471191406251 0.7141395874023437 -1.900073974609375
   vertex 0.09048270416259765 0.7957925415039062 -1.8184210205078126
  endloop
 endfacet
 facet normal 7.425310741382418e-06 0.7070937752723694 -0.7071197628974915
  outer loop
   vertex 0.006279051780700684 0.6951142578125 -1.9190992431640626
   vertex 0.06845471191406251 0.7141395874023437 -1.900073974609375
   vertex 0.06374239730834962 0.711201904296875 -1.9030115966796874
  endloop
 endfacet
 facet normal -2.97097212751396e-05 0.7071210741996765 -0.7070925235748291
  outer loop
   vertex 0.09297764587402343 0.7396550903320313 -1.8745584716796875
   vertex 0.07289686584472656 0.7172806396484375 -1.8969329833984376
   vertex 0.06845471191406251 0.7141395874023437 -1.900073974609375
  endloop
 endfacet
 facet normal 3.148770338157192e-05 0.7070935964584351 -0.7071200013160706
  outer loop
   vertex 0.07705132293701172 0.7206127319335938 -1.893600830078125
   vertex 0.07289686584472656 0.7172806396484375 -1.8969329833984376
   vertex 0.09297764587402343 0.7396550903320313 -1.8745584716796875
  endloop
 endfacet
endsolid patch_2_0
