solid patch_1_0
 facet normal 0.0 0.0 1.0
  outer loop
   vertex -0.07705132293701172 -0.06374239730834962 0.0
   vertex -0.07289686584472656 -0.06845471191406251 0.0
   vertex -0.06845471191406251 -0.07289686584472656 0.0
  endloop
 endfacet
 facet normal 0.0 0.0 1.0
  outer loop
   vertex -0.08443279266357422 -0.05358267974853516 0.0
   vertex -0.07705132293701172 -0.06374239730834962 0.0
   vertex -0.06845471191406251 -0.07289686584472656 0.0
  endloop
 endfacet
 facet normal 0.0 0.0 1.0
  outer loop
   vertex -0.08443279266357422 -0.05358267974853516 0.0
   vertex -0.08090170288085938 -0.058778526306152344 0.0
   vertex -0.07705132293701172 -0.06374239730834962 0.0
  endloop
 endfacet
 facet normal 0.0 0.0 1.0
  outer loop
   vertex -0.042577930450439457 -0.09048270416259765 0.0
   vertex -0.06374239730834962 -0.07705132293701172 0.0
   vertex -0.058778526306152344 -0.08090170288085938 0.0
  endloop
 endfacet
 facet normal 0.0 0.0 1.0
  outer loop
   vertex -0.042577930450439457 -0.09048270416259765 0.0
   vertex -0.058778526306152344 -0.08090170288085938 0.0
   vertex -0.05358267974853516 -0.08443279266357422 0.0
  endloop
 endfacet
 facet normal 0.0 0.0 1.0
  outer loop
   vertex -0.042577930450439457 -0.09048270416259765 0.0
   vertex -0.05358267974853516 -0.08443279266357422 0.0
   vertex -0.04817536926269531 -0.08763066864013672 0.0
  endloop
 endfacet
 facet normal 0.0 0.0 1.0
  outer loop
   vertex -0.09297764587402343 -0.036812454223632815 0.0
   vertex -0.09048270416259765 -0.042577930450439457 0.0
   vertex -0.08763066864013672 -0.04817536926269531 0.0
  endloop
 endfacet
 facet normal 0.0 0.0 1.0
  outer loop
   vertex -0.09297764587402343 -0.036812454223632815 0.0
   vertex -0.08763066864013672 -0.04817536926269531 0.0
   vertex -0.08443279266357422 -0.05358267974853516 0.0
  endloop
 endfacet
 facet normal 0.0 0.0 1.0
  outer loop
   vertex -0.03090169906616211 -0.09510565185546875 0.0
   vertex -0.042577930450439457 -0.09048270416259765 0.0
   vertex -0.036812454223632815 -0.09297764587402343 0.0
  endloop
 endfacet
 facet normal 0.0 0.0 1.0
  outer loop
   vertex -0.024868988037109376 -0.09685831451416016 0.0
   vertex -0.06374239730834962 -0.07705132293701172 0.0
   vertex -0.042577930450439457 -0.09048270416259765 0.0
  endloop
 endfacet
 facet normal 0.0 0.0 1.0
  outer loop
   vertex -0.024868988037109376 -0.09685831451416016 0.0
   vertex -0.042577930450439457 -0.09048270416259765 0.0
   vertex -0.03090169906616211 -0.09510565185546875 0.0
  endloop
 endfacet
 facet normal 0.0 0.0 1.0
  outer loop
   vertex -0.09822872161865234 -0.018738130569458007 0.0
   vertex -0.08443279266357422 -0.05358267974853516 0.0
   vertex -0.06845471191406251 -0.07289686584472656 0.0
  endloop
 endfacet
 facet normal 0.0 0.0 1.0
  outer loop
   vertex -0.09822872161865234 -0.018738130569458007 0.0
   vertex -0.09297764587402343 -0.036812454223632815 0.0
   vertex -0.08443279266357422 -0.05358267974853516 0.0
  endloop
 endfacet
 facet normal 0.0 0.0 1.0
  outer loop
   vertex -0.09822872161865234 -0.018738130569458007 0.0
   vertex -0.09685831451416016 -0.024868988037109376 0.0
   vertex -0.09510565185546875 -0.03090169906616211 0.0
  endloop
 endfacet
 facet normal 0.0 0.0 1.0
  outer loop
   vertex -0.09822872161865234 -0.018738130569458007 0.0
   vertex -0.09510565185546875 -0.03090169906616211 0.0
   vertex -0.09297764587402343 -0.036812454223632815 0.0
  endloop
 endfacet
 facet normal 0.0 0.0 1.0
  outer loop
   vertex -0.012533323287963867 -0.09921147155761718 0.0
   vertex -0.09822872161865234 -0.018738130569458007 0.0
   vertex -0.06845471191406251 -0.07289686584472656 0.0
  endloop
 endfacet
 facet normal 0.0 0.0 1.0
  outer loop
   vertex -0.012533323287963867 -0.09921147155761718 0.0
   vertex -0.06374239730834962 -0.07705132293701172 0.0
   vertex -0.024868988037109376 -0.09685831451416016 0.0
  endloop
 endfacet
 facet normal 0.0 0.0 1.0
  outer loop
   vertex -0.012533323287963867 -0.09921147155761718 0.0
   vertex -0.06845471191406251 -0.07289686584472656 0.0
   vertex -0.06374239730834962 -0.07705132293701172 0.0
  endloop
 endfacet
 facet normal 0.0 0.0 1.0
  outer loop
   vertex -0.012533323287963867 -0.09921147155761718 0.0
   vertex -0.024868988037109376 -0.09685831451416016 0.0
   vertex -0.018738130569458007 -0.09822872161865234 0.0
  endloop
 endfacet
 facet normal 0.0 0.0 1.0
  outer loop
   vertex -0.1 -2.5420705579599914e-16 0.0
   vertex -0.09980267333984376 -0.006279051780700684 0.0
   vertex -0.09921147155761718 -0.012533323287963867 0.0
  endloop
 endfacet
 facet normal 0.0 0.0 1.0
  outer loop
   vertex -0.09980267333984376 0.006279051780700684 0.0
   vertex -0.09921147155761718 -0.012533323287963867 0.0
   vertex -0.09822872161865234 -0.018738130569458007 0.0
  endloop
 endfacet
 facet normal 0.0 0.0 1.0
  outer loop
   vertex -0.09980267333984376 0.006279051780700684 0.0
   vertex -0.1 -2.5420705579599914e-16 0.0
   vertex -0.09921147155761718 -0.012533323287963867 0.0
  endloop
 endfacet
 facet normal 0.0 0.0 1.0
  outer loop
   vertex 0.006279051780700684 -0.09980267333984376 0.0
   vertex -0.012533323287963867 -0.09921147155761718 0.0
   vertex -0.006279051780700684 -0.09980267333984376 0.0
  endloop
 endfacet
 facet normal 0.0 0.0 1.0
  outer loop
   vertex 0.006279051780700684 -0.09980267333984376 0.0
   vertex -0.006279051780700684 -0.09980267333984376 0.0
   vertex -1.8369701782925894e-17 -0.1 0.0
  endloop
 endfacet
 facet normal 0.0 0.0 1.0
  outer loop
   vertex -0.09685831451416016 0.024868988037109376 0.0
   vertex -0.09822872161865234 0.018738130569458007 0.0
   vertex -0.09921147155761718 0.012533323287963867 0.0
  endloop
 endfacet
 facet normal 0.0 0.0 1.0
  outer loop
   vertex 0.024868988037109376 -0.09685831451416016 0.0
   vertex 0.012533323287963867 -0.09921147155761718 0.0
   vertex 0.018738130569458007 -0.09822872161865234 0.0
  endloop
 endfacet
 facet normal 0.0 0.0 1.0
  outer loop
   vertex -0.09510565185546875 0.03090169906616211 0.0
   vertex -0.09822872161865234 -0.018738130569458007 0.0
   vertex -0.012533323287963867 -0.09921147155761718 0.0
  endloop
 endfacet
 facet normal 0.0 0.0 1.0
  outer loop
   vertex -0.09510565185546875 0.03090169906616211 0.0
   vertex -0.09921147155761718 0.012533323287963867 0.0
   vertex -0.09980267333984376 0.006279051780700684 0.0
  endloop
 endfacet
 facet normal 0.0 0.0 1.0
  outer loop
   vertex -0.09510565185546875 0.03090169906616211 0.0
   vertex -0.09980267333984376 0.006279051780700684 0.0
   vertex -0.09822872161865234 -0.018738130569458007 0.0
  endloop
 endfacet
 facet normal 0.0 0.0 1.0
  outer loop
   vertex -0.09510565185546875 0.03090169906616211 0.0
   vertex -0.012533323287963867 -0.09921147155761718 0.0
   vertex 0.006279051780700684 -0.09980267333984376 0.0
  endloop
 endfacet
 facet normal 0.0 0.0 1.0
  outer loop
   vertex -0.09510565185546875 0.03090169906616211 0.0
   vertex -0.09685831451416016 0.024868988037109376 0.0
   vertex -0.09921147155761718 0.012533323287963867 0.0
  endloop
 endfacet
 facet normal 0.0 0.0 1.0
  outer loop
   vertex 0.03090169906616211 -0.09510565185546875 0.0
   vertex 0.012533323287963867 -0.09921147155761718 0.0
   vertex 0.024868988037109376 -0.09685831451416016 0.0
  endloop
 endfacet
 facet normal 0.0 0.0 1.0
  outer loop
   vertex 0.03090169906616211 -0.09510565185546875 0.0
   vertex 0.006279051780700684 -0.09980267333984376 0.0
   vertex 0.012533323287963867 -0.09921147155761718 0.0
  endloop
 endfacet
 facet normal 0.0 0.0 1.0
  outer loop
   vertex 0.042577930450439457 -0.09048270416259765 0.0
   vertex 0.006279051780700684 -0.09980267333984376 0.0
   vertex 0.03090169906616211 -0.09510565185546875 0.0
  endloop
 endfacet
 facet normal 0.0 0.0 1.0
  outer loop
   vertex 0.042577930450439457 -0.09048270416259765 0.0
   vertex 0.03090169906616211 -0.09510565185546875 0.0
   vertex 0.036812454223632815 -0.09297764587402343 0.0
  endloop
 endfacet
 facet normal 0.0 0.0 1.0
  outer loop
   vertex -0.08763066864013672 0.04817536926269531 0.0
   vertex -0.09048270416259765 0.042577930450439457 0.0
   vertex -0.09297764587402343 0.036812454223632815 0.0
  endloop
 endfacet
 facet normal 0.0 0.0 1.0
  outer loop
   vertex -0.08763066864013672 0.04817536926269531 0.0
   vertex -0.09297764587402343 0.036812454223632815 0.0
   vertex -0.09510565185546875 0.03090169906616211 0.0
  endloop
 endfacet
 facet normal 0.0 0.0 1.0
  outer loop
   vertex -0.08443279266357422 0.05358267974853516 0.0
   vertex -0.08763066864013672 0.04817536926269531 0.0
   vertex -0.09510565185546875 0.03090169906616211 0.0
  endloop
 endfacet
 facet normal 0.0 0.0 1.0
  outer loop
   vertex 0.06374239730834962 -0.07705132293701172 0.0
   vertex 0.042577930450439457 -0.09048270416259765 0.0
   vertex 0.04817536926269531 -0.08763066864013672 0.0
  endloop
 endfacet
 facet normal 0.0 0.0 1.0
  outer loop
   vertex 0.06374239730834962 -0.07705132293701172 0.0
   vertex 0.04817536926269531 -0.08763066864013672 0.0
   vertex 0.05358267974853516 -0.08443279266357422 0.0
  endloop
 endfacet
 facet normal 0.0 0.0 1.0
  outer loop
   vertex 0.06374239730834962 -0.07705132293701172 0.0
   vertex 0.05358267974853516 -0.08443279266357422 0.0
   vertex 0.058778526306152344 -0.08090170288085938 0.0
  endloop
 endfacet
 facet normal 0.0 0.0 1.0
  outer loop
   vertex 0.06845471191406251 -0.07289686584472656 0.0
   vertex -0.09510565185546875 0.03090169906616211 0.0
   vertex 0.006279051780700684 -0.09980267333984376 0.0
  endloop
 endfacet
 facet normal 0.0 0.0 1.0
  outer loop
   vertex 0.06845471191406251 -0.07289686584472656 0.0
   vertex 0.006279051780700684 -0.09980267333984376 0.0
   vertex 0.042577930450439457 -0.09048270416259765 0.0
  endloop
 endfacet
 facet normal 0.0 0.0 1.0
  outer loop
   vertex 0.06845471191406251 -0.07289686584472656 0.0
   vertex 0.042577930450439457 -0.09048270416259765 0.0
   vertex 0.06374239730834962 -0.07705132293701172 0.0
  endloop
 endfacet
 facet normal 0.0 0.0 1.0
  outer loop
   vertex -0.07289686584472656 0.06845471191406251 0.0
   vertex -0.07705132293701172 0.06374239730834962 0.0
   vertex -0.08090170288085938 0.058778526306152344 0.0
  endloop
 endfacet
 facet normal 0.0 0.0 1.0
  outer loop
   vertex -0.07289686584472656 0.06845471191406251 0.0
   vertex -0.08090170288085938 0.058778526306152344 0.0
   vertex -0.08443279266357422 0.05358267974853516 0.0
  endloop
 endfacet
 facet normal 0.0 0.0 1.0
  outer loop
   vertex -0.07289686584472656 0.06845471191406251 0.0
   vertex -0.08443279266357422 0.05358267974853516 0.0
   vertex -0.09510565185546875 0.03090169906616211 0.0
  endloop
 endfacet
 facet normal 0.0 0.0 1.0
  outer loop
   vertex 0.08090170288085938 -0.058778526306152344 0.0
   vertex 0.06845471191406251 -0.07289686584472656 0.0
   vertex 0.07289686584472656 -0.06845471191406251 0.0
  endloop
 endfacet
 facet normal 0.0 0.0 1.0
  outer loop
   vertex 0.08090170288085938 -0.058778526306152344 0.0
   vertex 0.07289686584472656 -0.06845471191406251 0.0
   vertex 0.07705132293701172 -0.06374239730834962 0.0
  endloop
 endfacet
 facet normal 0.0 0.0 1.0
  outer loop
   vertex -0.058778526306152344 0.08090170288085938 0.0
   vertex -0.06374239730834962 0.07705132293701172 0.0
   vertex -0.06845471191406251 0.07289686584472656 0.0
  endloop
 endfacet
 facet normal 0.0 0.0 1.0
  outer loop
   vertex -0.05358267974853516 0.08443279266357422 0.0
   vertex -0.058778526306152344 0.08090170288085938 0.0
   vertex -0.06845471191406251 0.07289686584472656 0.0
  endloop
 endfacet
 facet normal 0.0 0.0 1.0
  outer loop
   vertex -0.05358267974853516 0.08443279266357422 0.0
   vertex -0.06845471191406251 0.07289686584472656 0.0
   vertex -0.07289686584472656 0.06845471191406251 0.0
  endloop
 endfacet
 facet normal 0.0 0.0 1.0
  outer loop
   vertex -0.05358267974853516 0.08443279266357422 0.0
   vertex -0.09510565185546875 0.03090169906616211 0.0
   vertex 0.06845471191406251 -0.07289686584472656 0.0
  endloop
 endfacet
 facet normal 0.0 0.0 1.0
  outer loop
   vertex -0.05358267974853516 0.08443279266357422 0.0
   vertex -0.07289686584472656 0.06845471191406251 0.0
   vertex -0.09510565185546875 0.03090169906616211 0.0
  endloop
 endfacet
 facet normal 0.0 0.0 1.0
  outer loop
   vertex 0.09048270416259765 -0.042577930450439457 0.0
   vertex 0.06845471191406251 -0.07289686584472656 0.0
   vertex 0.08090170288085938 -0.058778526306152344 0.0
  endloop
 endfacet
 facet normal 0.0 0.0 1.0
  outer loop
   vertex 0.09048270416259765 -0.042577930450439457 0.0
   vertex 0.08090170288085938 -0.058778526306152344 0.0
   vertex 0.08443279266357422 -0.05358267974853516 0.0
  endloop
 endfacet
 facet normal 0.0 0.0 1.0
  outer loop
   vertex 0.09048270416259765 -0.042577930450439457 0.0
   vertex 0.08443279266357422 -0.05358267974853516 0.0
   vertex 0.08763066864013672 -0.04817536926269531 0.0
  endloop
 endfacet
 facet normal 0.0 0.0 1.0
  outer loop
   vertex -0.042577930450439457 0.09048270416259765 0.0
   vertex -0.04817536926269531 0.08763066864013672 0.0
   vertex -0.05358267974853516 0.08443279266357422 0.0
  endloop
 endfacet
 facet normal 0.0 0.0 1.0
  outer loop
   vertex 0.09297764587402343 -0.036812454223632815 0.0
   vertex 0.06845471191406251 -0.07289686584472656 0.0
   vertex 0.09048270416259765 -0.042577930450439457 0.0
  endloop
 endfacet
 facet normal 0.0 0.0 1.0
  outer loop
   vertex -0.03090169906616211 0.09510565185546875 0.0
   vertex -0.042577930450439457 0.09048270416259765 0.0
   vertex -0.05358267974853516 0.08443279266357422 0.0
  endloop
 endfacet
 facet normal 0.0 0.0 1.0
  outer loop
   vertex -0.03090169906616211 0.09510565185546875 0.0
   vertex -0.036812454223632815 0.09297764587402343 0.0
   vertex -0.042577930450439457 0.09048270416259765 0.0
  endloop
 endfacet
 facet normal 0.0 0.0 1.0
  outer loop
   vertex 0.09685831451416016 -0.024868988037109376 0.0
   vertex 0.09297764587402343 -0.036812454223632815 0.0
   vertex 0.09510565185546875 -0.03090169906616211 0.0
  endloop
 endfacet
 facet normal 0.0 0.0 1.0
  outer loop
   vertex -0.024868988037109376 0.09685831451416016 0.0
   vertex -0.05358267974853516 0.08443279266357422 0.0
   vertex 0.06845471191406251 -0.07289686584472656 0.0
  endloop
 endfacet
 facet normal 0.0 0.0 1.0
  outer loop
   vertex -0.024868988037109376 0.09685831451416016 0.0
   vertex -0.03090169906616211 0.09510565185546875 0.0
   vertex -0.05358267974853516 0.08443279266357422 0.0
  endloop
 endfacet
 facet normal 0.0 0.0 1.0
  outer loop
   vertex -0.012533323287963867 0.09921147155761718 0.0
   vertex -0.018738130569458007 0.09822872161865234 0.0
   vertex -0.024868988037109376 0.09685831451416016 0.0
  endloop
 endfacet
 facet normal 0.0 0.0 1.0
  outer loop
   vertex -0.006279051780700684 0.09980267333984376 0.0
   vertex -0.012533323287963867 0.09921147155761718 0.0
   vertex -0.024868988037109376 0.09685831451416016 0.0
  endloop
 endfacet
 facet normal 0.0 0.0 1.0
  outer loop
   vertex -6.049014642049017e-17 0.1 0.0
   vertex -0.006279051780700684 0.09980267333984376 0.0
   vertex -0.024868988037109376 0.09685831451416016 0.0
  endloop
 endfacet
 facet normal 0.0 0.0 1.0
  outer loop
   vertex 0.1 0.0 0.0
   vertex 0.09297764587402343 -0.036812454223632815 0.0
   vertex 0.09685831451416016 -0.024868988037109376 0.0
  endloop
 endfacet
 facet normal 0.0 0.0 1.0
  outer loop
   vertex 0.1 0.0 0.0
   vertex 0.09685831451416016 -0.024868988037109376 0.0
   vertex 0.09822872161865234 -0.018738130569458007 0.0
  endloop
 endfacet
 facet normal 0.0 0.0 1.0
  outer loop
   vertex 0.1 0.0 0.0
   vertex 0.09822872161865234 -0.018738130569458007 0.0
   vertex 0.09921147155761718 -0.012533323287963867 0.0
  endloop
 endfacet
 facet normal 0.0 0.0 1.0
  outer loop
   vertex 0.1 0.0 0.0
   vertex 0.09921147155761718 -0.012533323287963867 0.0
   vertex 0.09980267333984376 -0.006279051780700684 0.0
  endloop
 endfacet
 facet normal 0.0 0.0 1.0
  outer loop
   vertex 0.006279051780700684 0.09980267333984376 0.0
   vertex -6.049014642049017e-17 0.1 0.0
   vertex -0.024868988037109376 0.09685831451416016 0.0
  endloop
 endfacet
 facet normal 0.0 0.0 1.0
  outer loop
   vertex 0.09685831451416016 0.024868988037109376 0.0
   vertex 0.09921147155761718 0.012533323287963867 0.0
   vertex 0.09822872161865234 0.018738130569458007 0.0
  endloop
 endfacet
 facet normal 0.0 0.0 1.0
  outer loop
   vertex 0.09510565185546875 0.03090169906616211 0.0
   vertex 0.09921147155761718 0.012533323287963867 0.0
   vertex 0.09685831451416016 0.024868988037109376 0.0
  endloop
 endfacet
 facet normal 0.0 0.0 1.0
  outer loop
   vertex 0.09048270416259765 0.042577930450439457 0.0
   vertex 0.09510565185546875 0.03090169906616211 0.0
   vertex 0.09297764587402343 0.036812454223632815 0.0
  endloop
 endfacet
 facet normal 0.0 0.0 1.0
  outer loop
   vertex 0.042577930450439457 0.09048270416259765 0.0
   vertex 0.036812454223632815 0.09297764587402343 0.0
   vertex 0.03090169906616211 0.09510565185546875 0.0
  endloop
 endfacet
 facet normal 0.0 0.0 1.0
  outer loop
   vertex 0.042577930450439457 0.09048270416259765 0.0
   vertex 0.03090169906616211 0.09510565185546875 0.0
   vertex 0.024868988037109376 0.09685831451416016 0.0
  endloop
 endfacet
 facet normal 0.0 0.0 1.0
  outer loop
   vertex 0.042577930450439457 0.09048270416259765 0.0
   vertex 0.024868988037109376 0.09685831451416016 0.0
   vertex 0.018738130569458007 0.09822872161865234 0.0
  endloop
 endfacet
 facet normal 0.0 0.0 1.0
  outer loop
   vertex 0.042577930450439457 0.09048270416259765 0.0
   vertex 0.018738130569458007 0.09822872161865234 0.0
   vertex 0.012533323287963867 0.09921147155761718 0.0
  endloop
 endfacet
 facet normal 0.0 0.0 1.0
  outer loop
   vertex 0.042577930450439457 0.09048270416259765 0.0
   vertex 0.012533323287963867 0.09921147155761718 0.0
   vertex 0.006279051780700684 0.09980267333984376 0.0
  endloop
 endfacet
 facet normal 0.0 0.0 1.0
  outer loop
   vertex 0.042577930450439457 0.09048270416259765 0.0
   vertex 0.06845471191406251 -0.07289686584472656 0.0
   vertex 0.09297764587402343 -0.036812454223632815 0.0
  endloop
 endfacet
 facet normal 0.0 0.0 1.0
  outer loop
   vertex 0.042577930450439457 0.09048270416259765 0.0
   vertex -0.024868988037109376 0.09685831451416016 0.0
   vertex 0.06845471191406251 -0.07289686584472656 0.0
  endloop
 endfacet
 facet normal 0.0 0.0 1.0
  outer loop
   vertex 0.042577930450439457 0.09048270416259765 0.0
   vertex 0.006279051780700684 0.09980267333984376 0.0
   vertex -0.024868988037109376 0.09685831451416016 0.0
  endloop
 endfacet
 facet normal 0.0 0.0 1.0
  outer loop
   vertex 0.08763066864013672 0.04817536926269531 0.0
   vertex 0.09510565185546875 0.03090169906616211 0.0
   vertex 0.09048270416259765 0.042577930450439457 0.0
  endloop
 endfacet
 facet normal 0.0 0.0 1.0
  outer loop
   vertex 0.08763066864013672 0.04817536926269531 0.0
   vertex 0.09921147155761718 0.012533323287963867 0.0
   vertex 0.09510565185546875 0.03090169906616211 0.0
  endloop
 endfacet
 facet normal 0.0 0.0 1.0
  outer loop
   vertex 0.04817536926269531 0.08763066864013672 0.0
   vertex 0.042577930450439457 0.09048270416259765 0.0
   vertex 0.09297764587402343 -0.036812454223632815 0.0
  endloop
 endfacet
 facet normal 0.0 0.0 1.0
  outer loop
   vertex 0.08090170288085938 0.058778526306152344 0.0
   vertex 0.08763066864013672 0.04817536926269531 0.0
   vertex 0.08443279266357422 0.05358267974853516 0.0
  endloop
 endfacet
 facet normal 0.0 0.0 1.0
  outer loop
   vertex 0.08090170288085938 0.058778526306152344 0.0
   vertex 0.09921147155761718 0.012533323287963867 0.0
   vertex 0.08763066864013672 0.04817536926269531 0.0
  endloop
 endfacet
 facet normal 0.0 0.0 1.0
  outer loop
   vertex 0.07705132293701172 0.06374239730834962 0.0
   vertex 0.1 0.0 0.0
   vertex 0.09980267333984376 0.006279051780700684 0.0
  endloop
 endfacet
 facet normal 0.0 0.0 1.0
  outer loop
   vertex 0.07705132293701172 0.06374239730834962 0.0
   vertex 0.09980267333984376 0.006279051780700684 0.0
   vertex 0.09921147155761718 0.012533323287963867 0.0
  endloop
 endfacet
 facet normal 0.0 0.0 1.0
  outer loop
   vertex 0.07705132293701172 0.06374239730834962 0.0
   vertex 0.09297764587402343 -0.036812454223632815 0.0
   vertex 0.1 0.0 0.0
  endloop
 endfacet
 facet normal 0.0 0.0 1.0
  outer loop
   vertex 0.07705132293701172 0.06374239730834962 0.0
   vertex 0.09921147155761718 0.012533323287963867 0.0
   vertex 0.08090170288085938 0.058778526306152344 0.0
  endloop
 endfacet
 facet normal 0.0 0.0 1.0
  outer loop
   vertex 0.06374239730834962 0.07705132293701172 0.0
   vertex 0.058778526306152344 0.08090170288085938 0.0
   vertex 0.05358267974853516 0.08443279266357422 0.0
  endloop
 endfacet
 facet normal 0.0 0.0 1.0
  outer loop
   vertex 0.06374239730834962 0.07705132293701172 0.0
   vertex 0.05358267974853516 0.08443279266357422 0.0
   vertex 0.04817536926269531 0.08763066864013672 0.0
  endloop
 endfacet
 facet normal 0.0 0.0 1.0
  outer loop
   vertex 0.06845471191406251 0.07289686584472656 0.0
   vertex 0.07705132293701172 0.06374239730834962 0.0
   vertex 0.07289686584472656 0.06845471191406251 0.0
  endloop
 endfacet
 facet normal 0.0 0.0 1.0
  outer loop
   vertex 0.06845471191406251 0.07289686584472656 0.0
   vertex 0.04817536926269531 0.08763066864013672 0.0
   vertex 0.09297764587402343 -0.036812454223632815 0.0
  endloop
 endfacet
 facet normal 0.0 0.0 1.0
  outer loop
   vertex 0.06845471191406251 0.07289686584472656 0.0
   vertex 0.06374239730834962 0.07705132293701172 0.0
   vertex 0.04817536926269531 0.08763066864013672 0.0
  endloop
 endfacet
 facet normal 0.0 0.0 1.0
  outer loop
   vertex 0.06845471191406251 0.07289686584472656 0.0
   vertex 0.09297764587402343 -0.036812454223632815 0.0
   vertex 0.07705132293701172 0.06374239730834962 0.0
  endloop
 endfacet
endsolid patch_1_0
